<mxfile host="Electron" agent="Mozilla/5.0 (Macintosh; Intel Mac OS X 10_15_7) AppleWebKit/537.36 (KHTML, like Gecko) draw.io/28.0.4 Chrome/138.0.7204.97 Electron/37.2.1 Safari/537.36" version="28.0.4">
  <diagram name="Page-1" id="iq1k8ACWDL7KgENsJ9e4">
    <mxGraphModel dx="946" dy="679" grid="1" gridSize="10" guides="1" tooltips="1" connect="1" arrows="1" fold="1" page="1" pageScale="1" pageWidth="850" pageHeight="1100" math="0" shadow="0">
      <root>
        <mxCell id="0" />
        <mxCell id="1" parent="0" />
        <mxCell id="ttnsVl5ffZw-3S3VeS3s-1" value="&lt;h1&gt;REDSTONE / ORRYX&lt;/h1&gt;" style="ellipse;whiteSpace=wrap;html=1;aspect=fixed;verticalAlign=top;direction=south;" vertex="1" parent="1">
          <mxGeometry x="250" y="140" width="420" height="420" as="geometry" />
        </mxCell>
        <mxCell id="21Cjd468Wk4KAWmeG08--1" value="" style="ellipse;whiteSpace=wrap;html=1;aspect=fixed;" parent="1" vertex="1">
          <mxGeometry x="310" y="200" width="300" height="300" as="geometry" />
        </mxCell>
        <mxCell id="21Cjd468Wk4KAWmeG08--2" value="open&lt;div&gt;LDAP&lt;/div&gt;" style="ellipse;whiteSpace=wrap;html=1;aspect=fixed;" parent="1" vertex="1">
          <mxGeometry x="420" y="180" width="80" height="80" as="geometry" />
        </mxCell>
        <mxCell id="21Cjd468Wk4KAWmeG08--3" value="Grafana" style="ellipse;whiteSpace=wrap;html=1;aspect=fixed;" parent="1" vertex="1">
          <mxGeometry x="540" y="310" width="80" height="80" as="geometry" />
        </mxCell>
        <mxCell id="21Cjd468Wk4KAWmeG08--4" value="PSQL" style="ellipse;whiteSpace=wrap;html=1;aspect=fixed;" parent="1" vertex="1">
          <mxGeometry x="420" y="430" width="80" height="80" as="geometry" />
        </mxCell>
        <mxCell id="21Cjd468Wk4KAWmeG08--5" value="Loki" style="ellipse;whiteSpace=wrap;html=1;aspect=fixed;" parent="1" vertex="1">
          <mxGeometry x="510" y="400" width="80" height="80" as="geometry" />
        </mxCell>
        <mxCell id="21Cjd468Wk4KAWmeG08--6" value="RAGMine" style="ellipse;whiteSpace=wrap;html=1;aspect=fixed;" parent="1" vertex="1">
          <mxGeometry x="420" y="300" width="80" height="80" as="geometry" />
        </mxCell>
        <mxCell id="21Cjd468Wk4KAWmeG08--7" value="BOFH&lt;div&gt;Zealot&lt;/div&gt;" style="ellipse;whiteSpace=wrap;html=1;aspect=fixed;" parent="1" vertex="1">
          <mxGeometry x="330" y="390" width="80" height="80" as="geometry" />
        </mxCell>
        <mxCell id="21Cjd468Wk4KAWmeG08--8" value="RAGMine&lt;div&gt;MCP&lt;div&gt;Client&lt;/div&gt;&lt;/div&gt;" style="ellipse;whiteSpace=wrap;html=1;aspect=fixed;" parent="1" vertex="1">
          <mxGeometry x="330" y="220" width="80" height="80" as="geometry" />
        </mxCell>
        <mxCell id="21Cjd468Wk4KAWmeG08--9" value="RAGMine&lt;div&gt;MCP&lt;/div&gt;&lt;div&gt;SVR&lt;/div&gt;" style="ellipse;whiteSpace=wrap;html=1;aspect=fixed;" parent="1" vertex="1">
          <mxGeometry x="510" y="220" width="80" height="80" as="geometry" />
        </mxCell>
        <mxCell id="21Cjd468Wk4KAWmeG08--11" value="Cron/&lt;div&gt;Bishop&lt;/div&gt;" style="ellipse;whiteSpace=wrap;html=1;aspect=fixed;" parent="1" vertex="1">
          <mxGeometry x="300" y="300" width="80" height="80" as="geometry" />
        </mxCell>
      </root>
    </mxGraphModel>
  </diagram>
</mxfile>
